<?xml version="1.0" encoding="UTF-8" standalone="no"?>
<!-- Created with Inkscape (http://www.inkscape.org/) -->

<svg
   width="133.34654mm"
   height="132.05319mm"
   viewBox="0 0 133.34654 132.0532"
   version="1.1"
   id="svg5"
   xmlns="http://www.w3.org/2000/svg"
   xmlns:svg="http://www.w3.org/2000/svg">
  <defs
     id="defs2" />
  <path
     style="fill:none;stroke:#000000;stroke-width:4;stroke-linecap:round;stroke-linejoin:miter;stroke-miterlimit:4;stroke-dasharray:none;stroke-opacity:1"
     d="M 131.34654,65.006172 C 120.37642,64.829232 117.41387,66.939019 108.16773,75.622419 78.927658,55.641944 62.517863,65.006169 46.593489,88.184981"
     id="path140" />
  <path
     style="fill:none;stroke:#000000;stroke-width:4;stroke-linecap:round;stroke-linejoin:miter;stroke-miterlimit:4;stroke-dasharray:none;stroke-opacity:1"
     d="M 124.44598,117.02579 C 85.696675,142.32785 42.877801,124.10329 29.607489,117.5566 19.194984,112.41976 1.6390855,114.9473 2.0052404,100.39367 2.3713953,85.840043 41.286058,14.221944 51.547739,8.5631099 c 10.237042,-5.6478167 21.999663,-7.152762 32.556499,-6.36975 8.412847,6.1999947 11.411205,14.6371511 7.254439,23.7096231 -2.456202,5.360853 -13.270313,1.4155 -24.240437,-1.769374 -3.361815,9.200748 -9.731563,33.971999 -9.731563,33.971999"
     id="path1355" />
  <path
     style="fill:none;stroke:#000000;stroke-width:4;stroke-linecap:round;stroke-linejoin:miter;stroke-miterlimit:4;stroke-dasharray:none;stroke-opacity:1"
     d="M 111.35261,101.9861 C 98.56772,112.085 92.066425,113.66398 73.841864,111.18685"
     id="path2178" />
</svg>
