<?xml version="1.0" encoding="UTF-8" standalone="no"?>
<!-- Created with Inkscape (http://www.inkscape.org/) -->

<svg
   width="199.99992mm"
   height="199.99992mm"
   viewBox="0 0 199.99992 199.99992"
   version="1.1"
   id="svg5"
   xmlns="http://www.w3.org/2000/svg"
   xmlns:svg="http://www.w3.org/2000/svg">
  <defs
     id="defs2" />
  <g
     id="layer1">
    <rect
       style="fill:#000000;fill-opacity:1;stroke:#000000;stroke-width:1;stroke-linecap:round;stroke-miterlimit:4;stroke-dasharray:none"
       id="rect846"
       width="198.99992"
       height="198.99992"
       x="0.5"
       y="0.5" />
    <rect
       style="fill:#000000;fill-opacity:1;stroke:#ffffff;stroke-width:2;stroke-linecap:round;stroke-miterlimit:4;stroke-dasharray:none;stroke-opacity:1"
       id="rect937"
       width="192.99454"
       height="192.99452"
       x="3.5"
       y="3.5" />
    <g
       aria-label="ZX
S"
       id="text3949"
       style="font-size:119.735px;line-height:0.8;font-family:D-DIN;-inkscape-font-specification:D-DIN;stroke-width:0.264">
      <path
         d="M 90.185872,79.281592 V 93.051117 H 36.544591 V 79.281592 L 72.105887,24.083757 H 37.263001 v -13.64979 h 51.845256 v 13.64979 L 53.666696,79.281592 Z"
         style="fill:#ffffff"
         id="path13492" />
      <path
         d="M 119.74358,50.066252 95.916314,10.433967 h 18.558926 l 14.60767,26.82064 14.3682,-26.82064 h 17.84051 l -23.34832,39.03361 26.10223,43.58354 H 145.36687 L 128.7237,62.518692 111.84107,93.051117 H 94.000554 Z"
         style="fill:#ffffff"
         id="path13494" />
      <path
         d="m 64.921787,189.55753 q -13.290586,0 -20.714156,-6.58543 -7.42357,-6.70516 -8.261715,-19.27733 h 14.84714 q 0.838145,6.82489 4.31046,9.69853 3.59205,2.75391 10.536681,2.75391 13.290585,0 13.290585,-10.89589 0,-4.90913 -2.63417,-7.42357 -2.63417,-2.63417 -8.38145,-3.59205 l -7.782776,-1.31708 q -22.390445,-3.71179 -22.390445,-22.98912 0,-11.49456 7.543305,-18.19972 7.66304,-6.70516 20.235216,-6.70516 12.21297,0 19.277335,6.46569 7.1841,6.46569 8.14198,18.19972 h -15.08661 q -0.359205,-5.98675 -3.472315,-8.74066 -3.11311,-2.7539 -9.09986,-2.7539 -6.106486,0 -9.219596,2.87364 -3.11311,2.7539 -3.11311,7.66304 0,4.31046 2.753905,6.82489 2.753905,2.51444 8.620921,3.59205 l 8.740655,1.55656 q 21.31283,3.83152 21.31283,23.22859 0,12.45244 -8.022245,19.03786 -7.90251,6.58543 -21.432565,6.58543 z"
         style="fill:#ffffff"
         id="path13496" />
    </g>
  </g>
</svg>
