<?xml version="1.0" encoding="UTF-8" standalone="no"?>
<!-- Created with Inkscape (http://www.inkscape.org/) -->

<svg
   width="23.875999mm"
   height="34.845581mm"
   viewBox="0 0 23.876 34.845582"
   version="1.1"
   id="svg5"
   xmlns="http://www.w3.org/2000/svg"
   xmlns:svg="http://www.w3.org/2000/svg">
  <defs
     id="defs2" />
  <g
     id="layer1"
     transform="translate(-42.787,-79.92721)">
    <path
       d="m 54.72497,84.08726 c 3.20278,0 5.26548,3.35968 5.3086,7.52634 H 49.416373 c 0.04302,-4.1664 2.105797,-7.52634 5.308597,-7.52634 z m 0,-4.16005 c -4.990303,0 -9.034195,5.28056 -9.034195,11.79381 l 0.0021,0.16346 C 43.995802,92.50611 42.787,94.1301 42.787,96.03579 v 10.37405 c 0,4.61803 5.345112,8.36295 11.938,8.36295 6.59262,0 11.938,-3.74492 11.938,-8.36295 V 96.03579 c 0,-1.90577 -1.20885,-3.52981 -2.90592,-4.15131 l 0.002,-0.16346 c 0,-6.51325 -4.04389,-11.79381 -9.0342,-11.79381 z m -3.38772,21.49687 c 0,-1.86489 1.51643,-3.37714 3.38772,-3.37714 1.87135,0 3.38773,1.51215 3.38773,3.37714 0,1.1938 -0.62164,2.24346 -1.55946,2.84348 v 3.10806 H 52.8967 v -3.10806 c -0.93781,-0.60013 -1.55945,-1.64978 -1.55945,-2.84348 z"
       fill-rule="evenodd"
       stroke-linecap="round"
       stroke-linejoin="round"
       stroke-width="0.215106"
       id="path944"
       style="fill:#ffffff;fill-opacity:1" />
  </g>
</svg>
