<?xml version="1.0" encoding="UTF-8" standalone="no"?>
<!-- Created with Inkscape (http://www.inkscape.org/) -->

<svg
   width="131.48769mm"
   height="131.81844mm"
   viewBox="0 0 131.48768 131.81844"
   version="1.1"
   id="svg5"
   xmlns="http://www.w3.org/2000/svg"
   xmlns:svg="http://www.w3.org/2000/svg">
  <defs
     id="defs2" />
  <g
     id="layer1"
     transform="translate(-43.467839,-89.463121)">
    <path
       style="fill:none;stroke:#000000;stroke-width:4;stroke-linecap:butt;stroke-linejoin:miter;stroke-miterlimit:4;stroke-dasharray:none;stroke-opacity:1"
       d="m 171.90299,92.189973 c -60.27852,-6.40072 -93.530987,30.201237 -102.252749,74.039947 7.617751,14.63458 15.980897,22.16036 31.944659,31.64611 36.26504,-15.29375 78.63923,-39.12788 70.30809,-105.686057 z"
       id="path2158" />
    <path
       style="fill:none;stroke:#000000;stroke-width:4;stroke-linecap:butt;stroke-linejoin:miter;stroke-miterlimit:4;stroke-dasharray:none;stroke-opacity:1"
       d="m 86.518215,126.97084 c 0,0 -7.942383,-0.84618 -24.480952,1.34346 -4.298093,4.87658 -11.592843,15.87196 -15.375232,27.01861 11.592842,3.68295 24.630225,4.32895 24.630225,4.32895"
       id="path2771" />
    <path
       style="fill:none;stroke:#000000;stroke-width:4;stroke-linecap:butt;stroke-linejoin:miter;stroke-miterlimit:4;stroke-dasharray:none;stroke-opacity:1"
       d="m 136.97286,180.11241 c 0,0 0.0134,16.3442 -1.1942,22.39112 -5.23801,5.15127 -11.99966,9.47118 -27.01861,16.1216 -3.07702,-7.38134 -2.98548,-22.68966 -2.98548,-22.68966"
       id="path2905" />
    <path
       style="fill:none;stroke:#000000;stroke-width:4;stroke-linecap:butt;stroke-linejoin:miter;stroke-miterlimit:4;stroke-dasharray:none;stroke-opacity:1"
       d="m 75.621204,146.37647 c 14.979759,19.18836 24.100212,26.57707 45.230056,42.09529"
       id="path3072" />
    <circle
       style="fill:#ffffff;stroke:#000000;stroke-width:4;stroke-miterlimit:4;stroke-dasharray:none;stroke-opacity:1"
       id="path3628"
       cx="135.24951"
       cy="128.65398"
       r="16.738094" />
    <path
       style="fill:none;stroke:#000000;stroke-width:4;stroke-linecap:round;stroke-linejoin:miter;stroke-miterlimit:4;stroke-dasharray:none;stroke-opacity:1"
       d="M 60.096701,180.70951 45.467839,195.1891"
       id="path3762" />
    <path
       style="fill:none;stroke:#000000;stroke-width:4;stroke-linecap:round;stroke-linejoin:miter;stroke-miterlimit:4;stroke-dasharray:none;stroke-opacity:1"
       d="m 71.441531,193.39781 -25.078048,24.7795"
       id="path3764" />
    <path
       style="fill:none;stroke:#000000;stroke-width:4;stroke-linecap:round;stroke-linejoin:miter;stroke-miterlimit:4;stroke-dasharray:none;stroke-opacity:1"
       d="m 83.980553,204.44409 -13.13612,13.28539"
       id="path3766" />
  </g>
</svg>
